<svg xmlns="http://www.w3.org/2000/svg" width="91" height="88" viewBox="0 0 91 88"><path style="fill-rule: evenodd;" fill="#020202" d="M10,36H81V78H10V36Zm3,6L45.5,61.834,78,42V75H13V42Z"/><path style="fill-rule: evenodd;" fill="#020202" d="M22.01,10H68.989V45.537L43.031,57.012,22.01,45.537V10Z"/><path style="fill-rule: evenodd;" fill="#fafafa" d="M25,13.009H66V45l-20.5,12L25,45V13.009Z"/><path style="fill-rule: evenodd;" fill="#fafafa" d="M11.042,74.2L45.5,49.034,79.958,74.2"/><path style="fill-rule: evenodd;" fill="#020202" d="M79.2,76.993L45.481,52.663,11.762,76.993l-1.777-2.4,35.5-25.613,35.5,25.613Z"/><path style="fill-rule: evenodd;" fill="#95c23d" d="M45.5,45A13.5,13.5,0,1,1,59,31.5,13.5,13.5,0,0,1,45.5,45Zm0-24A10.5,10.5,0,1,0,56,31.5,10.5,10.5,0,0,0,45.5,21ZM43.8,37.213l-5.455-5.455,2.046-2.046L43.8,33.122,50.614,26.3l2.046,2.046Z"/></svg>